HIERARCHY
ROOT Hips
{
 OFFSET 0.000000 0.000000 0.000000
 CHANNELS 6 Xposition Yposition Zposition Yrotation Xrotation Zrotation
 JOINT Chest
 {
  OFFSET 0.000000 9.585900 0.002600
  CHANNELS 3 Yrotation Xrotation Zrotation
  JOINT Chest2
  {
   OFFSET 0.000000 9.601200 -0.005300
   CHANNELS 3 Yrotation Xrotation Zrotation
   JOINT Chest3
   {
    OFFSET 0.000000 9.561800 0.000000
    CHANNELS 3 Yrotation Xrotation Zrotation
    JOINT Chest4
    {
     OFFSET 0.000000 9.552100 0.000000
     CHANNELS 3 Yrotation Xrotation Zrotation
     JOINT Neck
     {
      OFFSET 0.000000 14.453000 0.000000
      CHANNELS 3 Yrotation Xrotation Zrotation
      JOINT Head
      {
       OFFSET 0.000000 8.936500 -0.011300
       CHANNELS 3 Yrotation Xrotation Zrotation
       End Site
       {
        OFFSET 0.000000 17.073600 -0.006000
       }
      }
     }
     JOINT RightCollar
     {
      OFFSET -2.921100 9.558500 0.000000
      CHANNELS 3 Yrotation Xrotation Zrotation
      JOINT RightShoulder
      {
       OFFSET -13.519700 0.000000 0.000000
       CHANNELS 3 Yrotation Xrotation Zrotation
       JOINT RightElbow
       {
        OFFSET 0.000000 -29.696600 0.000000
        CHANNELS 3 Yrotation Xrotation Zrotation
        JOINT RightWrist
        {
         OFFSET 0.000000 -24.004700 0.000000
         CHANNELS 3 Yrotation Xrotation Zrotation
         End Site
         {
          OFFSET 0.000000 -17.728500 0.000000
         }
        }
       }
      }
     }
     JOINT LeftCollar
     {
      OFFSET 2.921100 9.558500 0.000000
      CHANNELS 3 Yrotation Xrotation Zrotation
      JOINT LeftShoulder
      {
       OFFSET 13.519700 0.000000 0.000000
       CHANNELS 3 Yrotation Xrotation Zrotation
       JOINT LeftElbow
       {
        OFFSET 0.000000 -29.696600 0.000000
        CHANNELS 3 Yrotation Xrotation Zrotation
        JOINT LeftWrist
        {
         OFFSET 0.000000 -24.004700 0.000000
         CHANNELS 3 Yrotation Xrotation Zrotation
         End Site
         {
          OFFSET 0.000000 -17.728500 0.000000
         }
        }
       }
      }
     }
    }
   }
  }
 }
 JOINT RightHip
 {
  OFFSET -7.771700 -0.012900 -0.001300
  CHANNELS 3 Yrotation Xrotation Zrotation
  JOINT RightKnee
  {
   OFFSET 0.000000 -40.869800 0.001200
   CHANNELS 3 Yrotation Xrotation Zrotation
   JOINT RightAnkle
   {
    OFFSET 0.000000 -39.717900 0.002100
    CHANNELS 3 Yrotation Xrotation Zrotation
    JOINT RightToe
    {
     OFFSET 0.000000 -4.965400 11.033500
     CHANNELS 3 Yrotation Xrotation Zrotation
     End Site
     {
      OFFSET 0.000000 -1.423100 5.872300
     }
    }
   }
  }
 }
 JOINT LeftHip
 {
  OFFSET 7.771700 -0.012900 -0.001300
  CHANNELS 3 Yrotation Xrotation Zrotation
  JOINT LeftKnee
  {
   OFFSET 0.000000 -40.869800 0.001200
   CHANNELS 3 Yrotation Xrotation Zrotation
   JOINT LeftAnkle
   {
    OFFSET 0.000000 -39.717900 0.002100
    CHANNELS 3 Yrotation Xrotation Zrotation
    JOINT LeftToe
    {
     OFFSET 0.000000 -4.965400 11.033500
     CHANNELS 3 Yrotation Xrotation Zrotation
     End Site
     {
      OFFSET 0.000000 -1.423100 5.872300
     }
    }
   }
  }
 }
}
MOTION
Frames: 15
Frame Time: 0.008333
0.000000 85.388000 0.000000 0.000000 -5.767877 0.000000 0.000000 11.653817 0.000000 0.000000 -5.885947 0.000000 0.000000 -0.000000 0.000000 0.000000 -0.000000 0.000000 0.000000 12.528835 0.000000 0.000000 0.711642 0.000000 0.000000 -0.000000 0.000000 0.000000 0.000000 -90.000000 0.000000 -2.309062 0.000000 0.000000 2.309062 0.000000 0.000000 -0.000000 0.000000 0.000000 -0.000000 90.000000 0.000000 -2.309062 0.000000 0.000000 2.309062 0.000000 0.000000 8.520406 0.000000 0.000000 1.905762 0.000000 -0.000000 -4.658285 0.000000 0.000000 -0.000000 0.000000 0.000000 8.520406 0.000000 0.000000 1.905762 0.000000 -0.000000 -4.658285 0.000000 0.000000 -0.000000 0.000000
-22.152864 57.352834 76.595197 175.585214 -35.671871 -2.219450 3.136936 21.093230 5.157342 0.327561 2.916110 0.460765 0.545424 4.742729 0.758924 2.525315 18.184179 3.251445 1.453686 14.031333 -2.022709 3.504196 -9.563270 -4.322242 2.236268 -2.136776 -0.008065 2.668291 -20.198197 -16.544188 3.449859 -6.972537 7.487071 -1.526482 -0.427359 -28.744279 -8.167889 -4.155996 -5.116491 1.280189 -19.264501 -0.496199 0.907684 2.080514 5.490680 5.930004 -1.465887 9.827022 10.674470 -37.046357 -3.976894 -4.820585 65.579140 -5.354296 6.247909 14.190317 10.668684 -0.347344 -7.932458 0.117858 -11.325461 -41.639390 7.023910 24.682701 58.593194 21.128231 -14.916775 40.663981 0.775940 0.318799 -19.962285 -7.592904
-22.152848 57.354758 76.595169 175.592007 -35.673424 -2.230509 3.126455 21.080704 5.160118 0.326360 2.913060 0.460656 0.543479 4.738139 0.758724 2.517503 18.178896 3.252843 1.441164 14.090408 -1.982713 3.481466 -9.469268 -4.264642 2.247914 -2.101787 -0.008944 2.542726 -20.305427 -16.459042 3.459225 -6.896356 7.375290 -1.407590 -0.404450 -28.646179 -8.156664 -4.131154 -5.129157 1.275384 -19.266565 -0.556911 1.352731 2.174222 5.523356 5.947349 -1.419592 9.833963 10.653386 -37.039182 -3.960442 -4.821024 65.573064 -5.358077 6.246460 14.178097 10.660121 -0.346847 -7.920795 0.121557 -11.328824 -41.641390 7.024616 24.671577 58.597713 21.123088 -14.898533 40.673333 0.790800 0.311971 -19.961327 -7.597388
-22.152609 57.356473 76.595524 175.601061 -35.674940 -2.244039 3.118929 21.075045 5.166481 0.323207 2.903208 0.459472 0.543083 4.738572 0.759042 2.492707 18.135151 3.248094 1.442033 14.183054 -1.939028 3.458194 -9.373993 -4.201526 2.274266 -2.037637 -0.009966 2.463706 -20.380470 -16.403326 3.472889 -6.842154 7.302541 -1.346487 -0.379396 -28.571303 -8.133565 -4.071952 -5.145771 1.277175 -19.264051 -0.622932 1.764340 2.253850 5.559702 5.966233 -1.369654 9.856020 10.631803 -37.032898 -3.941670 -4.813046 65.567590 -5.356265 6.243455 14.168170 10.655968 -0.348178 -7.912095 0.124464 -11.342418 -41.645840 7.034063 24.653519 58.608346 21.102420 -14.863559 40.690342 0.820845 0.303266 -19.972885 -7.607331
-22.150679 57.357973 76.596359 175.610846 -35.677614 -2.266664 3.114719 21.070439 5.182457 0.322881 2.901849 0.459636 0.543660 4.741374 0.759431 2.478880 18.110628 3.240931 1.435626 14.238582 -1.899407 3.428253 -9.273277 -4.122115 2.273201 -1.990952 -0.006569 2.431803 -20.448818 -16.363124 3.490969 -6.802358 7.254228 -1.314517 -0.364820 -28.528610 -8.126178 -4.044408 -5.154640 1.288377 -19.255012 -0.689067 2.153369 2.319185 5.593391 5.985142 -1.320151 9.888831 10.607495 -37.027089 -3.913968 -4.814417 65.559321 -5.359398 6.246419 14.168992 10.657305 -0.357405 -7.911717 0.123340 -11.366707 -41.646635 7.057137 24.656458 58.616040 21.103888 -14.859132 40.694576 0.826648 0.290641 -19.965342 -7.605277
-22.151216 57.357983 76.598668 175.618178 -35.671610 -2.270944 3.104261 21.052578 5.179697 0.323510 2.906225 0.459801 0.539009 4.727424 0.757180 2.469053 18.103320 3.232044 1.431203 14.293340 -1.857270 3.401243 -9.173856 -4.038823 2.280327 -1.952080 0.001938 2.411848 -20.494634 -16.334790 3.515441 -6.774043 7.227678 -1.308233 -0.350163 -28.503284 -8.111297 -4.016966 -5.163885 1.304782 -19.241008 -0.752520 2.523821 2.374063 5.622338 6.004792 -1.274787 9.930154 10.602976 -37.029612 -3.911472 -4.813709 65.554503 -5.358914 6.238349 14.167491 10.656981 -0.356351 -7.907768 0.122487 -11.375096 -41.654738 7.059603 24.639982 58.612005 21.082992 -14.845542 40.719820 0.831540 0.292836 -19.964390 -7.604540
-22.148871 57.358517 76.600348 175.612824 -35.676430 -2.280915 3.109033 21.043099 5.185916 0.315603 2.891567 0.454234 0.532951 4.712858 0.752388 2.477311 18.124478 3.238836 1.424413 14.338827 -1.816083 3.378574 -9.076822 -3.954419 2.285357 -1.923757 0.008853 2.411075 -20.513116 -16.324874 3.477663 -6.765582 7.191473 -1.278894 -0.321157 -28.408049 -8.099406 -3.992361 -5.171502 1.336195 -19.230123 -0.821310 2.878037 2.418382 5.649193 6.025710 -1.233996 9.977625 10.600442 -37.026240 -3.891660 -4.808788 65.550565 -5.351428 6.232897 14.174835 10.658360 -0.358722 -7.911978 0.119701 -11.389734 -41.654742 7.083965 24.644034 58.618814 21.081041 -14.861833 40.737227 0.831483 0.292739 -19.966411 -7.609424
-22.146761 57.357191 76.604265 175.620758 -35.667239 -2.294015 3.087199 21.009452 5.177528 0.328480 2.913398 0.463306 0.524119 4.694427 0.746059 2.485245 18.139517 3.243344 1.419087 14.357268 -1.796384 3.346567 -8.973845 -3.848756 2.286957 -1.914454 0.010919 2.401728 -20.556660 -16.289600 3.454458 -6.737653 7.134287 -1.248338 -0.294002 -28.321415 -8.087344 -3.983686 -5.184352 1.344422 -19.224171 -0.848691 3.239512 2.457627 5.639972 6.050047 -1.197390 10.024733 10.592353 -37.036823 -3.881985 -4.796474 65.547841 -5.336525 6.230298 14.180546 10.657234 -0.360272 -7.915009 0.119805 -11.413353 -41.668570 7.106468 24.631709 58.621118 21.065402 -14.874964 40.759649 0.813410 0.309038 -19.964711 -7.606493
-22.144402 57.356037 76.607701 175.625689 -35.663704 -2.302547 3.075941 20.992225 5.175130 0.328184 2.910477 0.461532 0.521900 4.689957 0.745284 2.477954 18.130358 3.237608 1.428286 14.399027 -1.770157 3.318115 -8.875088 -3.743198 2.300052 -1.875330 0.015968 2.419946 -20.618903 -16.225990 3.410917 -6.680500 7.045221 -1.220652 -0.284161 -28.253431 -8.061421 -3.949508 -5.186553 1.398478 -19.205740 -0.946468 3.552739 2.467349 5.676346 6.076394 -1.165303 10.063443 10.586181 -37.042429 -3.873331 -4.779688 65.546374 -5.318710 6.226526 14.188677 10.655310 -0.364308 -7.920591 0.120702 -11.432687 -41.676166 7.124072 24.624434 58.624258 21.051308 -14.874584 40.776085 0.812011 0.308569 -19.960224 -7.605921
-22.139467 57.355720 76.610084 175.621810 -35.670647 -2.317428 3.080420 20.985878 5.187774 0.322001 2.905106 0.459840 0.527934 4.697763 0.747188 2.463520 18.110173 3.228929 1.429599 14.448990 -1.726652 3.302872 -8.786983 -3.659163 2.312038 -1.839215 0.020825 2.443434 -20.643812 -16.195630 3.293448 -6.651880 6.960602 -1.147993 -0.274300 -28.165512 -8.038509 -3.916875 -5.187172 1.469517 -19.184469 -1.040703 3.841162 2.462198 5.707150 6.100348 -1.135323 10.093967 10.578462 -37.038676 -3.844982 -4.775033 65.542801 -5.313389 6.225460 14.195222 10.656265 -0.368660 -7.924501 0.119587 -11.455148 -41.668593 7.155293 24.636115 58.624334 21.065311 -14.921315 40.773756 0.758535 0.335552 -19.934643 -7.592129
-22.135804 57.356439 76.610649 175.612531 -35.689541 -2.318450 3.091130 20.994305 5.192285 0.318197 2.889631 0.453683 0.528699 4.714031 0.753177 2.455252 18.098159 3.218966 1.429082 14.494332 -1.681152 3.284875 -8.706116 -3.574135 2.316752 -1.805943 0.024284 2.457393 -20.664686 -16.175374 3.222089 -6.632228 6.922915 -1.134154 -0.273666 -28.122165 -8.021522 -3.893573 -5.182317 1.530537 -19.166590 -1.108402 4.118093 2.452397 5.720911 6.119652 -1.105151 10.125703 10.573083 -37.020948 -3.817604 -4.785424 65.539450 -5.334359 6.223954 14.196642 10.658788 -0.369520 -7.924835 0.119895 -11.452096 -41.648894 7.160783 24.645764 58.626199 21.075859 -14.932142 40.758560 0.751479 0.339363 -19.916097 -7.592647
-22.133498 57.356755 76.611505 175.604639 -35.703796 -2.311343 3.098606 20.999498 5.187337 0.318398 2.890914 0.454013 0.527780 4.709571 0.751064 2.457615 18.081721 3.199886 1.425350 14.549601 -1.620597 3.261502 -8.629910 -3.488702 2.312318 -1.777192 0.049680 2.470096 -20.673660 -16.162465 3.159996 -6.613566 6.894277 -1.146786 -0.273517 -28.097315 -7.992935 -3.853374 -5.172480 1.566792 -19.156770 -1.159711 4.363664 2.438787 5.729499 6.134077 -1.075121 10.166087 10.572752 -37.006891 -3.806082 -4.788410 65.538461 -5.345955 6.224404 14.194348 10.661534 -0.373306 -7.922710 0.118732 -11.449284 -41.633038 7.154732 24.666033 58.623469 21.093198 -14.930031 40.738842 0.755078 0.330355 -19.872304 -7.594176
-22.131742 57.356769 76.612720 175.603673 -35.712914 -2.305507 3.097952 21.002180 5.179169 0.318696 2.894986 0.455977 0.530354 4.700476 0.745730 2.459431 18.086702 3.201124 1.418852 14.608015 -1.560080 3.238943 -8.575689 -3.427325 2.311204 -1.764987 0.056393 2.481792 -20.686139 -16.133563 3.133586 -6.598910 6.857564 -1.208627 -0.271877 -28.095858 -7.991412 -3.844512 -5.166866 1.643732 -19.144749 -1.214171 4.566067 2.422610 5.733059 6.144154 -1.046113 10.215889 10.568124 -36.998241 -3.800242 -4.790583 65.538969 -5.355168 6.222424 14.195414 10.663689 -0.373637 -7.923597 0.115466 -11.442555 -41.622608 7.143816 24.670945 58.620588 21.098628 -14.932344 40.718686 0.758136 0.327678 -19.839783 -7.597600
-22.129382 57.357450 76.613217 175.585542 -35.726431 -2.294388 3.112992 21.012973 5.178158 0.319660 2.887967 0.451712 0.532591 4.699330 0.744389 2.463391 18.090743 3.203011 1.415891 14.655480 -1.515445 3.210250 -8.510463 -3.351773 2.303502 -1.751298 0.065503 2.489596 -20.693372 -16.108946 2.972738 -6.578744 6.802130 -1.145091 -0.265408 -28.063776 -7.977258 -3.832373 -5.164536 1.713735 -19.135703 -1.260151 4.722498 2.402432 5.734353 6.150733 -1.017060 10.273107 10.572370 -36.985794 -3.788442 -4.801202 65.536375 -5.370323 6.226221 14.196563 10.663909 -0.372306 -7.922670 0.112155 -11.423576 -41.606430 7.137064 24.680819 58.618045 21.111264 -14.942414 40.697870 0.751858 0.326629 -19.809168 -7.596059
-22.129033 57.358963 76.612443 175.570442 -35.746182 -2.274727 3.123649 21.026290 5.165754 0.320695 2.888074 0.451119 0.539199 4.697247 0.740718 2.465190 18.093049 3.203414 1.412718 14.696954 -1.475347 3.180203 -8.439850 -3.271867 2.297982 -1.735395 0.072690 2.481972 -20.706803 -16.076406 2.853722 -6.557739 6.753546 -1.129587 -0.260548 -28.050515 -7.949835 -3.804006 -5.157215 1.722510 -19.147511 -1.283622 4.882042 2.385213 5.727656 6.157271 -0.988645 10.337016 10.579635 -36.965186 -3.789979 -4.810974 65.536546 -5.382528 6.226977 14.195153 10.658424 -0.374024 -7.921018 0.111969 -11.389224 -41.581753 7.097232 24.692519 58.606580 21.139563 -14.931063 40.666084 0.757229 0.316567 -19.768223 -7.601141
